PathFileType	4	(X/Y/Z)	C:\Users\WrightLab\Desktop\Jo\P1_boxCal30.trc
DataRate	CameraRate	NumFrames	NumMarkers	Units	OrigDataRate	OrigDataStartFrame	OrigNumFrames
100.00	100.00	       8	19	mm	100.00	121	       481
Frame#	Time	Headset_Front			Headset_Back			Headset_Left			Headset_Right			Left_Shoulder			Right_Shoulder			Sternum			C7			Left Elbow			Right Elbow			Left Wrist			Right Wrist			Left ASIS			Right ASIS			S2			Left Knee			Right Knee			Left Ankle			Right Ankle			
		X1	Y1	Z1	X2	Y2	Z2	X3	Y3	Z3	X4	Y4	Z4	X5	Y5	Z5	X6	Y6	Z6	X7	Y7	Z7	X8	Y8	Z8	X9	Y9	Z9	X10	Y10	Z10	X11	Y11	Z11	X12	Y12	Z12	X13	Y13	Z13	X14	Y14	Z14	X15	Y15	Z15	X16	Y16	Z16	X17	Y17	Z17	X18	Y18	Z18	X19	Y19	Z19	

121	1.200	-689.64960	1413.84924	-152.11652	-697.96161	1496.34717	-442.36923	-587.16479	1440.71948	-327.99539	-797.52515	1448.72900	-246.72456	-515.49292	1272.41174	-357.71426	-894.92780	1265.55493	-383.14783	-732.58118	1167.27075	-245.46541	-686.64545	1272.47473	-480.93646	-430.63281	952.73920	-379.77188	-962.20544	1007.47375	-484.38788	-419.19696	771.34302	-237.11562	-1034.49524	769.10187	-417.08813	-628.75708	888.37054	-223.14230	-825.08069	886.29950	-251.52614	-666.33295	892.11322	-546.46417	-558.22400	433.59558	-366.28824	-913.15765	496.39069	-255.96805	-619.52747	70.45516	-440.16025				
122	1.210	-690.68842	1413.00281	-141.77936	-699.82721	1495.55347	-432.21384	-588.32117	1440.37207	-317.46155	-800.21112	1448.81140	-237.69766	-516.83850	1271.56213	-346.38861	-895.57861	1264.71130	-372.92340				-687.87439	1271.93750	-470.07803	-431.10599	951.86072	-367.62793	-963.47455	1007.95892	-475.24591	-421.49448	771.60913	-224.22952	-1036.58813	769.55933	-411.62720	-628.58447	888.20709	-214.92972	-825.76868	885.98694	-241.31566	-669.91736	891.45282	-536.24896	-560.56342	432.73132	-363.48254	-912.05420	495.62543	-243.26241	-619.56470	70.57187	-440.06409				
123	1.220	-691.43457	1415.97754	-124.13565	-701.43591	1494.19043	-421.54886	-589.79755	1439.71143	-306.92960	-801.21692	1447.40442	-227.40701	-518.26910	1270.71875	-335.88715	-896.68652	1263.49329	-361.87695	-733.87939	1166.39246	-223.22531	-688.91718	1271.31653	-459.61526	-431.45242	951.36761	-356.02359	-964.69836	1006.85242	-465.67917	-423.30548	771.81036	-211.31174	-1040.59363	769.64911	-404.86218	-628.36658	887.08173	-205.67236	-825.85266	884.81482	-229.40070	-673.79034	890.99945	-526.79041	-562.09277	432.38684	-359.06506	-911.12164	494.40988	-231.02658	-620.00140	71.83080	-439.74207				
124	1.230	-693.21936	1412.95557	-119.50317	-703.06244	1492.62427	-410.90063	-591.54388	1438.82239	-296.23227	-803.31427	1446.48230	-216.58171	-518.72150	1270.04431	-325.71918	-897.50427	1262.08264	-350.94122	-735.58557	1162.71472	-212.63815	-690.49329	1270.08948	-449.19513	-432.14722	949.99500	-343.33432	-966.29700	1006.40082	-456.62640	-424.61032	771.24847	-196.85593	-1043.62683	769.76227	-398.41125	-628.92517	885.81415	-195.75397	-825.03607	882.44476	-218.41161	-677.82214	890.12360	-516.63800	-563.69360	432.47717	-356.09833	-908.43323	491.51398	-218.08011	-620.45935	71.65620	-439.15027				
125	1.240	-694.51929	1411.21631	-110.28407	-705.11871	1491.56213	-401.81183	-593.06531	1437.70886	-286.35025	-804.61804	1444.86902	-205.72337	-520.00647	1268.45154	-315.28049	-898.32068	1260.29846	-340.09723	-736.06812	1161.48877	-202.26031	-691.40247	1268.66809	-438.16769	-432.57834	948.74939	-331.50858	-967.67181	1005.50110	-446.48535	-426.62460	770.95496	-184.12614	-1046.23694	768.78033	-392.09500	-628.24420	883.70593	-186.16304	-825.79346	880.99017	-208.16425	-682.12537	889.29840	-506.98087	-564.98743	431.42801	-350.74567	-908.40363	489.18494	-207.00113	-621.48492	71.27957	-438.78552				
126	1.250	-696.33484	1411.24512	-98.41026	-706.98309	1489.69788	-390.40808	-594.54102	1437.21594	-275.86447	-806.14337	1443.40063	-195.12181	-521.11945	1266.94165	-303.75751	-899.73840	1259.00342	-329.00372	-737.84149	1159.31189	-191.97256	-692.81610	1267.92517	-427.73441	-433.45755	947.05676	-319.69144	-969.51740	1005.59076	-437.49954	-428.82883	769.90015	-171.22542	-1049.62000	768.15875	-385.11835	-628.50720	880.91101	-175.95642	-825.44012	878.17029	-197.62711	-686.57727	888.34656	-497.64984	-566.60638	430.11111	-345.09650	-907.07495	486.39023	-196.72450	-621.55859	71.58664	-439.08405				
127	1.260	-696.67505	1409.51099	-90.57780	-708.24817	1487.87415	-379.56561	-595.80890	1435.36133	-265.25034	-807.68115	1441.99854	-184.82034	-522.48260	1264.93689	-294.50021	-901.00256	1256.72205	-317.55243	-738.91077	1157.03174	-181.67950	-694.44043	1265.92188	-417.61243	-433.75888	945.63770	-307.45975	-970.85187	1003.76141	-426.15121	-430.19623	768.74017	-157.99864	-1052.39294	768.00488	-377.24933	-629.25848	879.00989	-165.00699	-827.11761	876.12946	-186.76848	-690.71027	886.46790	-486.48044	-568.01917	429.73889	-341.42834	-906.24841	483.22147	-185.48973	-621.74524	71.37212	-438.64493				
128	1.270	-697.75342	1407.66956	-79.92195	-709.98901	1486.14514	-369.21985	-597.19940	1434.30212	-255.70576	-809.25769	1440.38818	-174.21634	-523.57556	1263.64514	-284.14639	-902.10144	1255.17383	-306.61111	-740.40656	1154.20984	-169.64018	-696.21417	1264.36926	-406.53116	-434.09100	943.28839	-295.35724	-972.52869	1002.17841	-417.15976	-431.14481	767.80658	-144.99113	-1055.45166	765.82758	-369.67502	-628.42487	876.09778	-156.48486	-826.58655	872.65497	-174.88300	-694.92450	884.76721	-476.89029	-569.48535	428.16147	-335.34909	-904.14478	480.04468	-173.36324	-621.54926	71.98042	-438.05182				
